# xmcd
#
# Track frame offsets: 
#        150
#        20089
#        36322
#        38951
#        57358
#        81101
#        101839
#        116356
#        135116
#        138770
#        159168
#        173396
#
# Disc length: 2482 seconds
#
# Revision: 0
# Processed by: cddbd v1.5.2PL0 Copyright (c) Steve Scherf et al.
# Submitted via: ExactAudioCopy v0.99pb5
#
DISCID=8d09b00c
DTITLE=Brian Harnetty and Bonnie "Prince" Billy - Silent City
DYEAR=2009
DGENRE=Alternative
TTITLE0=The Night Is, And Lights Are
TTITLE1=The Top Hat
TTITLE2=Sinclair Serenade
TTITLE3=Sleeping In The Driveway
TTITLE4="Well, There Are A Lot Of Stories"
TTITLE5=Silent City
TTITLE6=And Under The Winesap Tree
TTITLE7=It's Different Now
TTITLE8=Papa Made That Last Verse Up
TTITLE9=Some Glad Day
TTITLE10=As Old As The Stars
TTITLE11=To Hear Still More
EXTD=
EXTT0=
EXTT1=
EXTT2=
EXTT3=
EXTT4=
EXTT5=
EXTT6=
EXTT7=
EXTT8=
EXTT9=
EXTT10=
EXTT11=
PLAYORDER=
